<?xml version="1.0" encoding="UTF-8" standalone="no"?>
<!DOCTYPE svg PUBLIC "-//W3C//DTD SVG 1.1//EN" "http://www.w3.org/Graphics/SVG/1.1/DTD/svg11.dtd">
<svg width="100%" height="100%" viewBox="0 0 2481 2481" version="1.1" xmlns="http://www.w3.org/2000/svg" xmlns:xlink="http://www.w3.org/1999/xlink" xml:space="preserve" xmlns:serif="http://www.serif.com/" style="fill-rule:evenodd;clip-rule:evenodd;stroke-linecap:round;stroke-linejoin:round;stroke-miterlimit:1.5;">
    <g transform="matrix(1,0,0,1,-2716,-1027.163339)">
        <g id="Artboard2" transform="matrix(1,0,0,0.707184,-0.535433,1027.163339)">
            <rect x="2716.535" y="0" width="2480.315" height="3507.874" style="fill:none;"/>
            <clipPath id="_clip1">
                <rect x="2716.535" y="0" width="2480.315" height="3507.874"/>
            </clipPath>
            <g clip-path="url(#_clip1)">
                <g transform="matrix(1,0,0,1.41406,0.535433,-1452.470705)">
                    <path d="M5196.315,1027.163L5196.315,3507.874L2716,3507.874L2716,1027.163L5196.315,1027.163ZM2813.947,2247.762C2810.862,2249.304 2808.914,2252.457 2808.914,2255.906C2808.914,2259.354 2810.862,2262.507 2813.947,2264.049L3350.117,2532.134C3352.94,2533.545 3356.291,2533.394 3358.976,2531.736C3361.66,2530.077 3363.293,2527.146 3363.293,2523.991L3363.293,1987.82C3363.293,1984.665 3361.66,1981.734 3358.976,1980.075C3356.291,1978.417 3352.94,1978.266 3350.117,1979.677L2813.947,2247.762ZM2838.377,2255.906L3345.084,2002.552L3345.084,2509.259L2838.377,2255.906ZM4549.021,2595.548L4549.021,2848.77L4297.93,2848.77C4292.905,2848.77 4288.826,2852.849 4288.826,2857.874C4288.826,2862.899 4292.905,2866.979 4297.93,2866.979L4558.126,2866.979C4563.154,2866.979 4567.23,2862.902 4567.23,2857.874L4567.23,2595.548C4567.23,2590.523 4563.151,2586.444 4558.126,2586.444C4553.101,2586.444 4549.021,2590.523 4549.021,2595.548ZM5098.368,2264.049C5101.453,2262.507 5103.401,2259.354 5103.401,2255.906C5103.401,2252.457 5101.453,2249.304 5098.368,2247.762L4562.198,1979.677C4559.375,1978.266 4556.024,1978.417 4553.339,1980.075C4550.655,1981.734 4549.021,1984.665 4549.021,1987.82L4549.021,2523.991C4549.021,2527.146 4550.655,2530.077 4553.339,2531.736C4556.024,2533.394 4559.375,2533.545 4562.198,2532.134L5098.368,2264.049ZM5073.938,2255.906L4567.23,2509.259L4567.23,2002.552L5073.938,2255.906ZM3948.014,3398.116C3949.556,3401.201 3952.709,3403.149 3956.157,3403.149C3959.606,3403.149 3962.759,3401.201 3964.301,3398.116L4232.386,2861.946C4233.797,2859.123 4233.646,2855.772 4231.987,2853.087C4230.329,2850.403 4227.398,2848.77 4224.243,2848.77L3688.072,2848.77C3684.917,2848.77 3681.986,2850.403 3680.327,2853.087C3678.669,2855.772 3678.518,2859.123 3679.929,2861.946L3948.014,3398.116ZM3956.157,3373.686L3702.804,2866.979L4209.511,2866.979L3956.157,3373.686ZM3964.301,1113.695C3962.759,1110.61 3959.606,1108.662 3956.157,1108.662C3952.709,1108.662 3949.556,1110.61 3948.014,1113.695L3679.929,1649.865C3678.518,1652.688 3678.669,1656.039 3680.327,1658.724C3681.986,1661.408 3684.917,1663.042 3688.072,1663.042L4224.243,1663.042C4227.398,1663.042 4230.329,1661.408 4231.987,1658.724C4233.646,1656.039 4233.797,1652.688 4232.386,1649.865L3964.301,1113.695ZM3956.157,1138.125L4209.511,1644.833L3702.804,1644.832L3956.157,1138.125ZM4563.597,1297.751C4564.798,1297.751 4566.016,1297.871 4567.252,1298.11C4568.488,1298.35 4569.924,1298.828 4571.559,1299.544C4573.195,1300.26 4575.161,1301.377 4577.459,1302.895L4580.576,1297.911C4578.062,1296.259 4575.826,1295.01 4573.866,1294.166C4571.908,1293.321 4570.099,1292.754 4568.44,1292.464C4566.781,1292.173 4565.146,1292.028 4563.534,1292.028C4559.693,1292.028 4556.236,1292.871 4553.164,1294.557C4550.092,1296.241 4547.661,1298.547 4545.87,1301.473C4544.079,1304.398 4543.184,1307.681 4543.184,1311.323C4543.184,1315.443 4544.024,1318.989 4545.703,1321.961C4547.382,1324.933 4549.683,1327.21 4552.606,1328.791C4555.53,1330.372 4558.849,1331.163 4562.565,1331.163C4565.327,1331.163 4568.086,1330.768 4570.841,1329.979C4573.596,1329.189 4576.9,1327.661 4580.753,1325.395L4577.848,1320.698C4574.39,1322.585 4571.525,1323.848 4569.252,1324.485C4566.98,1325.122 4564.865,1325.44 4562.908,1325.44C4560.494,1325.44 4558.325,1324.849 4556.399,1323.666C4554.474,1322.484 4552.958,1320.836 4551.851,1318.722C4550.743,1316.609 4550.189,1314.17 4550.189,1311.407C4550.189,1308.746 4550.752,1306.385 4551.878,1304.326C4553.003,1302.267 4554.581,1300.657 4556.612,1299.495C4558.643,1298.332 4560.971,1297.751 4563.597,1297.751ZM4610.382,1331.187C4614.191,1331.187 4617.552,1330.362 4620.466,1328.712C4623.379,1327.061 4625.665,1324.773 4627.324,1321.848C4628.982,1318.922 4629.811,1315.533 4629.811,1311.68C4629.811,1307.794 4628.995,1304.375 4627.363,1301.422C4625.731,1298.468 4623.485,1296.156 4620.624,1294.485C4617.763,1292.814 4614.455,1291.979 4610.699,1291.979C4606.89,1291.979 4603.528,1292.813 4600.615,1294.482C4597.701,1296.151 4595.415,1298.457 4593.757,1301.401C4592.099,1304.345 4591.269,1307.707 4591.269,1311.486C4591.269,1315.444 4592.085,1318.9 4593.717,1321.854C4595.349,1324.808 4597.6,1327.102 4600.469,1328.737C4603.338,1330.37 4606.642,1331.187 4610.382,1331.187ZM4610.54,1325.513C4606.848,1325.513 4603.873,1324.265 4601.613,1321.769C4599.353,1319.272 4598.224,1315.873 4598.224,1311.571C4598.224,1308.69 4598.748,1306.211 4599.797,1304.133C4600.846,1302.056 4602.29,1300.457 4604.129,1299.335C4605.969,1298.214 4608.106,1297.653 4610.54,1297.653C4613.007,1297.653 4615.16,1298.231 4617,1299.387C4618.84,1300.543 4620.276,1302.164 4621.308,1304.25C4622.341,1306.334 4622.857,1308.783 4622.857,1311.596C4622.857,1316.056 4621.719,1319.49 4619.443,1321.9C4617.167,1324.309 4614.199,1325.513 4610.54,1325.513ZM4667.088,1330L4667.088,1324.278L4655.255,1324.278L4655.255,1312.103C4657.083,1309.882 4658.613,1308.069 4659.844,1306.663C4661.425,1304.858 4662.787,1303.511 4663.932,1302.623C4665.077,1301.735 4666.244,1301.141 4667.431,1300.841C4668.619,1300.54 4670.091,1300.328 4671.849,1300.207L4679.314,1299.628L4678.855,1292.881L4671.063,1293.379C4669.643,1293.469 4668.345,1293.682 4667.168,1294.019C4665.991,1294.355 4664.798,1294.98 4663.588,1295.894C4662.379,1296.807 4661.024,1298.155 4659.522,1299.938C4658.222,1301.481 4656.702,1303.487 4654.963,1305.955L4654.564,1293.166L4640.479,1293.166L4640.479,1298.889L4648.501,1298.889L4648.501,1324.278L4638.896,1324.278L4638.896,1330L4667.088,1330ZM4696.146,1314.034L4725.98,1314.034C4726.049,1313.672 4726.109,1313.242 4726.16,1312.744C4726.211,1312.246 4726.236,1311.714 4726.236,1311.148C4726.236,1306.944 4725.508,1303.421 4724.053,1300.58C4722.597,1297.738 4720.545,1295.594 4717.895,1294.148C4715.246,1292.702 4712.132,1291.979 4708.555,1291.979C4704.842,1291.979 4701.547,1292.848 4698.668,1294.586C4695.789,1296.324 4693.522,1298.718 4691.868,1301.769C4690.214,1304.821 4689.387,1308.303 4689.387,1312.216C4689.387,1317.897 4690.998,1322.327 4694.222,1325.506C4697.446,1328.685 4702.624,1330.327 4709.755,1330.433L4719.115,1330.591L4719.347,1325.218L4711.697,1325.035C4707.993,1324.913 4704.987,1324.378 4702.677,1323.429C4700.368,1322.479 4698.685,1321.054 4697.63,1319.153C4696.838,1317.724 4696.343,1316.018 4696.146,1314.034ZM4696.236,1308.98C4696.485,1307.109 4696.982,1305.453 4697.726,1304.013C4698.846,1301.849 4700.355,1300.199 4702.254,1299.063C4704.153,1297.927 4706.261,1297.358 4708.578,1297.358C4711.877,1297.358 4714.534,1298.424 4716.551,1300.556C4718.293,1302.398 4719.282,1305.206 4719.519,1308.98L4696.236,1308.98ZM4513.366,1325.325C4511.238,1325.325 4508.694,1324.967 4505.732,1324.252C4502.771,1323.535 4499.599,1322.541 4496.216,1321.27L4494.54,1327.187C4498.056,1328.494 4501.331,1329.465 4504.363,1330.1C4507.396,1330.736 4510.372,1331.054 4513.291,1331.054C4517.195,1331.054 4520.52,1330.446 4523.266,1329.229C4526.013,1328.013 4528.117,1326.277 4529.576,1324.021C4531.036,1321.765 4531.766,1319.079 4531.766,1315.961C4531.766,1312.176 4530.753,1309.177 4528.727,1306.962C4526.701,1304.747 4523.275,1302.881 4518.448,1301.363L4512.787,1299.56C4510.408,1298.802 4508.551,1297.979 4507.215,1297.092C4505.88,1296.206 4504.937,1295.194 4504.385,1294.056C4503.834,1292.918 4503.558,1291.629 4503.558,1290.189C4503.558,1288.144 4504.371,1286.409 4505.997,1284.984C4507.624,1283.558 4510.365,1282.845 4514.219,1282.845C4516.139,1282.845 4518.302,1283.061 4520.71,1283.493C4523.118,1283.925 4525.895,1284.62 4529.042,1285.577L4530.254,1279.636C4527.182,1278.801 4524.459,1278.176 4522.088,1277.762C4519.717,1277.348 4517.127,1277.141 4514.317,1277.141C4510.33,1277.141 4507.025,1277.786 4504.404,1279.076C4501.783,1280.365 4499.825,1282.035 4498.529,1284.086C4497.234,1286.136 4496.586,1288.333 4496.586,1290.676C4496.586,1294.25 4497.625,1297.256 4499.703,1299.694C4501.781,1302.132 4505.246,1304.118 4510.096,1305.652L4515.662,1307.399C4518.016,1308.102 4519.847,1308.888 4521.154,1309.759C4522.461,1310.629 4523.39,1311.598 4523.942,1312.665C4524.494,1313.731 4524.769,1314.956 4524.769,1316.34C4524.769,1319.102 4523.847,1321.29 4522.004,1322.905C4520.16,1324.518 4517.281,1325.325 4513.366,1325.325ZM4635.152,3227.026C4633.024,3227.026 4630.479,3226.668 4627.518,3225.953C4624.557,3225.236 4621.385,3224.242 4618.002,3222.971L4616.326,3228.888C4619.842,3230.195 4623.117,3231.166 4626.149,3231.801C4629.182,3232.437 4632.158,3232.755 4635.077,3232.755C4638.98,3232.755 4642.305,3232.147 4645.052,3230.93C4647.799,3229.714 4649.903,3227.978 4651.362,3225.722C4652.822,3223.466 4653.552,3220.779 4653.552,3217.662C4653.552,3213.877 4652.539,3210.877 4650.512,3208.663C4648.487,3206.448 4645.061,3204.582 4640.234,3203.063L4634.573,3201.261C4632.193,3200.503 4630.336,3199.68 4629.001,3198.793C4627.666,3197.907 4626.723,3196.895 4626.171,3195.757C4625.619,3194.619 4625.344,3193.33 4625.344,3191.89C4625.344,3189.845 4626.157,3188.11 4627.783,3186.685C4629.41,3185.259 4632.151,3184.546 4636.005,3184.546C4637.925,3184.546 4640.088,3184.762 4642.495,3185.194C4644.903,3185.626 4647.681,3186.321 4650.828,3187.278L4652.04,3181.337C4648.967,3180.502 4646.245,3179.877 4643.873,3179.463C4641.503,3179.049 4638.912,3178.842 4636.103,3178.842C4632.116,3178.842 4628.811,3179.487 4626.19,3180.777C4623.569,3182.066 4621.611,3183.736 4620.315,3185.787C4619.02,3187.837 4618.372,3190.034 4618.372,3192.377C4618.372,3195.951 4619.411,3198.957 4621.489,3201.395C4623.567,3203.832 4627.032,3205.819 4631.882,3207.353L4637.447,3209.1C4639.802,3209.803 4641.632,3210.589 4642.94,3211.46C4644.247,3212.33 4645.176,3213.299 4645.728,3214.366C4646.279,3215.432 4646.555,3216.657 4646.555,3218.041C4646.555,3220.803 4645.633,3222.991 4643.789,3224.605C4641.946,3226.219 4639.067,3227.026 4635.152,3227.026ZM3260.906,1301.1C3262.107,1301.1 3263.325,1301.22 3264.561,1301.46C3265.798,1301.699 3267.233,1302.177 3268.869,1302.894C3270.504,1303.61 3272.47,1304.727 3274.768,1306.245L3277.885,1301.261C3275.371,1299.608 3273.135,1298.36 3271.175,1297.516C3269.217,1296.671 3267.408,1296.104 3265.749,1295.813C3264.09,1295.523 3262.455,1295.378 3260.843,1295.378C3257.002,1295.378 3253.545,1296.221 3250.473,1297.906C3247.402,1299.591 3244.97,1301.896 3243.179,1304.822C3241.389,1307.747 3240.493,1311.031 3240.493,1314.672C3240.493,1318.792 3241.333,1322.338 3243.012,1325.31C3244.691,1328.282 3246.992,1330.559 3249.916,1332.141C3252.839,1333.722 3256.159,1334.512 3259.874,1334.512C3262.636,1334.512 3265.395,1334.118 3268.15,1333.329C3270.905,1332.539 3274.209,1331.01 3278.062,1328.744L3275.157,1324.047C3271.7,1325.935 3268.834,1327.198 3266.562,1327.835C3264.289,1328.472 3262.174,1328.79 3260.217,1328.79C3257.803,1328.79 3255.634,1328.199 3253.708,1327.016C3251.783,1325.834 3250.267,1324.186 3249.16,1322.072C3248.052,1319.958 3247.498,1317.52 3247.498,1314.757C3247.498,1312.095 3248.061,1309.735 3249.187,1307.676C3250.313,1305.617 3251.891,1304.006 3253.921,1302.844C3255.952,1301.682 3258.28,1301.1 3260.906,1301.1ZM3101.805,1317.384L3131.639,1317.384C3131.709,1317.022 3131.768,1316.592 3131.819,1316.094C3131.87,1315.596 3131.895,1315.064 3131.895,1314.498C3131.895,1310.294 3131.168,1306.771 3129.712,1303.929C3128.257,1301.087 3126.204,1298.944 3123.554,1297.498C3120.905,1296.052 3117.791,1295.329 3114.214,1295.329C3110.501,1295.329 3107.206,1296.198 3104.327,1297.936C3101.448,1299.674 3099.181,1302.068 3097.527,1305.119C3095.873,1308.17 3095.046,1311.653 3095.046,1315.566C3095.046,1321.247 3096.658,1325.677 3099.881,1328.856C3103.105,1332.035 3108.283,1333.677 3115.414,1333.783L3124.774,1333.941L3125.007,1328.567L3117.356,1328.384C3113.652,1328.263 3110.646,1327.728 3108.336,1326.779C3106.027,1325.829 3104.345,1324.403 3103.289,1322.502C3102.497,1321.074 3102.002,1319.368 3101.805,1317.384ZM3101.895,1312.33C3102.144,1310.458 3102.641,1308.803 3103.385,1307.363C3104.505,1305.198 3106.014,1303.548 3107.913,1302.413C3109.812,1301.276 3111.92,1300.708 3114.237,1300.708C3117.536,1300.708 3120.194,1301.774 3122.21,1303.906C3123.952,1305.748 3124.941,1308.555 3125.178,1312.33L3101.895,1312.33ZM3064.85,1328.675C3062.722,1328.675 3060.178,1328.317 3057.216,1327.601C3054.255,1326.885 3051.083,1325.891 3047.7,1324.62L3046.024,1330.537C3049.541,1331.844 3052.815,1332.815 3055.847,1333.45C3058.88,1334.086 3061.856,1334.403 3064.776,1334.403C3068.679,1334.403 3072.004,1333.795 3074.751,1332.579C3077.498,1331.363 3079.601,1329.627 3081.06,1327.371C3082.52,1325.115 3083.25,1322.428 3083.25,1319.311C3083.25,1315.526 3082.237,1312.526 3080.211,1310.312C3078.185,1308.097 3074.759,1306.23 3069.933,1304.712L3064.271,1302.91C3061.892,1302.151 3060.035,1301.329 3058.7,1300.442C3057.364,1299.556 3056.421,1298.543 3055.869,1297.405C3055.318,1296.267 3055.042,1294.978 3055.042,1293.539C3055.042,1291.493 3055.855,1289.758 3057.481,1288.333C3059.108,1286.908 3061.849,1286.195 3065.703,1286.195C3067.623,1286.195 3069.787,1286.411 3072.194,1286.843C3074.602,1287.275 3077.379,1287.97 3080.526,1288.927L3081.738,1282.986C3078.666,1282.151 3075.943,1281.526 3073.572,1281.112C3071.201,1280.698 3068.611,1280.491 3065.801,1280.491C3061.814,1280.491 3058.509,1281.136 3055.888,1282.426C3053.267,1283.715 3051.309,1285.384 3050.014,1287.435C3048.718,1289.485 3048.07,1291.682 3048.07,1294.026C3048.07,1297.6 3049.109,1300.606 3051.187,1303.044C3053.266,1305.481 3056.73,1307.467 3061.58,1309.002L3067.146,1310.749C3069.5,1311.451 3071.331,1312.238 3072.638,1313.109C3073.945,1313.979 3074.874,1314.947 3075.426,1316.015C3075.978,1317.081 3076.254,1318.306 3076.254,1319.69C3076.254,1322.451 3075.332,1324.64 3073.488,1326.254C3071.645,1327.868 3068.765,1328.675 3064.85,1328.675ZM3199.022,1317.384L3228.856,1317.384C3228.925,1317.022 3228.985,1316.592 3229.035,1316.094C3229.086,1315.596 3229.112,1315.064 3229.112,1314.498C3229.112,1310.294 3228.384,1306.771 3226.929,1303.929C3225.473,1301.087 3223.421,1298.944 3220.771,1297.498C3218.121,1296.052 3215.008,1295.329 3211.431,1295.329C3207.718,1295.329 3204.422,1296.198 3201.543,1297.936C3198.665,1299.674 3196.398,1302.068 3194.744,1305.119C3193.09,1308.17 3192.262,1311.653 3192.262,1315.566C3192.262,1321.247 3193.874,1325.677 3197.098,1328.856C3200.322,1332.035 3205.5,1333.677 3212.63,1333.783L3221.991,1333.941L3222.223,1328.567L3214.573,1328.384C3210.869,1328.263 3207.862,1327.728 3205.553,1326.779C3203.243,1325.829 3201.561,1324.403 3200.506,1322.502C3199.713,1321.074 3199.219,1319.368 3199.022,1317.384ZM3199.112,1312.33C3199.361,1310.458 3199.858,1308.803 3200.602,1307.363C3201.722,1305.198 3203.231,1303.548 3205.129,1302.413C3207.029,1301.276 3209.137,1300.708 3211.454,1300.708C3214.753,1300.708 3217.41,1301.774 3219.426,1303.906C3221.168,1305.748 3222.158,1308.555 3222.395,1312.33L3199.112,1312.33ZM3300.89,1319.369C3300.89,1322.801 3301.264,1325.506 3302.011,1327.486C3302.758,1329.466 3304.04,1330.895 3305.858,1331.772C3307.675,1332.649 3310.197,1333.175 3313.423,1333.35L3325.699,1333.933L3326.133,1328.107L3314.936,1327.474C3313.045,1327.368 3311.565,1327.041 3310.495,1326.492C3309.427,1325.942 3308.684,1325.024 3308.268,1323.738C3307.852,1322.452 3307.644,1320.673 3307.644,1318.401L3307.644,1302.238L3323.905,1302.238L3323.905,1296.516L3307.57,1296.516L3307.57,1282.847L3300.94,1282.847L3300.94,1296.516L3288.487,1296.516L3288.487,1302.238L3300.89,1302.238L3300.89,1319.369ZM3616.257,1644.832L3354.189,1644.832C3349.161,1644.832 3345.084,1648.909 3345.084,1653.937L3345.084,1916.308C3345.084,1921.333 3349.164,1925.413 3354.189,1925.413C3359.214,1925.413 3363.293,1921.333 3363.293,1916.308L3363.293,1663.042L3616.257,1663.042C3621.282,1663.042 3625.362,1658.962 3625.362,1653.937C3625.362,1648.912 3621.282,1644.832 3616.257,1644.832ZM3345.084,2595.548L3345.084,2857.874C3345.084,2862.902 3349.161,2866.979 3354.189,2866.979L3616.257,2866.979C3621.282,2866.979 3625.362,2862.899 3625.362,2857.874C3625.362,2852.849 3621.282,2848.77 3616.257,2848.77L3363.293,2848.77L3363.293,2595.548C3363.293,2590.523 3359.214,2586.444 3354.189,2586.444C3349.164,2586.444 3345.084,2590.523 3345.084,2595.548ZM4567.23,1915.51L4567.23,1653.937C4567.23,1648.909 4563.154,1644.832 4558.126,1644.832L4296.038,1644.832C4291.013,1644.832 4286.933,1648.912 4286.933,1653.937C4286.933,1658.962 4291.013,1663.042 4296.038,1663.042L4549.021,1663.042L4549.021,1915.51C4549.021,1920.535 4553.101,1924.614 4558.126,1924.614C4563.151,1924.614 4567.23,1920.535 4567.23,1915.51ZM3156.872,1282.863L3156.872,1320.316C3156.872,1323.399 3157.279,1325.87 3158.091,1327.729C3158.904,1329.587 3160.253,1330.936 3162.137,1331.775C3164.022,1332.614 3166.543,1333.138 3169.7,1333.35L3179.142,1333.879L3179.482,1328.053L3170.853,1327.523C3168.28,1327.382 3166.432,1326.728 3165.31,1325.564C3164.188,1324.399 3163.626,1322.404 3163.626,1319.578L3163.626,1277.141L3142.427,1277.141L3142.427,1282.863L3156.872,1282.863ZM3221.377,3227.22L3222.061,3233.309L3227.827,3233.309L3227.827,3177.101L3221.049,3177.101L3221.049,3200.115C3219.536,3198.815 3218.075,3197.881 3216.668,3197.314C3214.359,3196.382 3212.073,3195.916 3209.809,3195.916C3206.264,3195.916 3203.081,3196.747 3200.262,3198.407C3197.442,3200.068 3195.229,3202.36 3193.621,3205.286C3192.013,3208.211 3191.208,3211.562 3191.208,3215.338C3191.208,3219.147 3191.952,3222.45 3193.44,3225.247C3194.929,3228.045 3196.909,3230.205 3199.381,3231.729C3201.854,3233.253 3204.594,3234.015 3207.602,3234.015C3210.318,3234.015 3212.821,3233.432 3215.112,3232.266C3217.095,3231.256 3219.184,3229.574 3221.377,3227.22ZM3221.049,3206.148L3221.049,3222.065C3219.796,3223.326 3218.654,3224.355 3217.622,3225.153C3216.079,3226.347 3214.657,3227.181 3213.357,3227.656C3212.057,3228.13 3210.758,3228.367 3209.46,3228.367C3207.447,3228.367 3205.576,3227.835 3203.848,3226.77C3202.119,3225.705 3200.74,3224.175 3199.709,3222.181C3198.679,3220.186 3198.164,3217.833 3198.164,3215.123C3198.164,3212.518 3198.664,3210.19 3199.664,3208.14C3200.665,3206.089 3202.113,3204.468 3204.01,3203.277C3205.907,3202.087 3208.176,3201.491 3210.817,3201.491C3211.86,3201.491 3213.027,3201.675 3214.317,3202.042C3215.607,3202.409 3217.041,3203.125 3218.619,3204.192C3219.398,3204.718 3220.208,3205.37 3221.049,3206.148ZM4676.759,3217.72C4676.759,3221.152 4677.132,3223.858 4677.879,3225.837C4678.626,3227.817 4679.909,3229.246 4681.726,3230.124C4683.544,3231 4686.066,3231.526 4689.292,3231.701L4701.567,3232.285L4702.002,3226.458L4690.804,3225.825C4688.914,3225.72 4687.433,3225.392 4686.364,3224.843C4685.295,3224.293 4684.552,3223.375 4684.136,3222.089C4683.72,3220.803 4683.512,3219.024 4683.512,3216.752L4683.512,3200.59L4699.774,3200.59L4699.774,3194.867L4683.438,3194.867L4683.438,3181.199L4676.808,3181.199L4676.808,3194.867L4664.355,3194.867L4664.355,3200.59L4676.759,3200.59L4676.759,3217.72ZM4740.318,3226.461C4740.842,3228.274 4741.803,3229.593 4743.202,3230.417C4744.6,3231.24 4746.641,3231.712 4749.325,3231.834L4753.058,3232.011L4753.571,3226.821L4750.009,3226.559C4748.678,3226.453 4747.794,3226.131 4747.358,3225.591C4746.922,3225.051 4746.705,3224.012 4746.705,3222.474L4746.705,3206.251C4746.705,3203.441 4746.215,3201.159 4745.235,3199.404C4744.256,3197.65 4742.607,3196.357 4740.286,3195.525C4737.966,3194.692 4734.77,3194.276 4730.701,3194.276C4728.968,3194.276 4726.887,3194.392 4724.456,3194.624C4722.026,3194.854 4719.429,3195.207 4716.666,3195.682L4717.367,3201.154C4720.016,3200.731 4722.491,3200.397 4724.793,3200.149C4727.095,3199.902 4728.971,3199.778 4730.42,3199.778C4733.022,3199.778 4735.022,3199.987 4736.422,3200.405C4737.822,3200.822 4738.789,3201.49 4739.322,3202.407C4739.856,3203.323 4740.123,3204.574 4740.123,3206.16L4740.123,3208.869L4726.349,3210.451C4723.105,3210.82 4720.529,3211.448 4718.623,3212.333C4716.716,3213.218 4715.354,3214.428 4714.536,3215.963C4713.718,3217.497 4713.309,3219.451 4713.309,3221.822C4713.309,3225.188 4714.354,3227.767 4716.446,3229.558C4718.537,3231.349 4721.225,3232.244 4724.51,3232.244C4727.356,3232.244 4730.001,3231.754 4732.445,3230.774C4734.889,3229.794 4737.288,3228.356 4739.642,3226.461L4740.318,3226.461ZM4740.123,3213.34L4740.123,3220.841C4738.171,3222.278 4736.434,3223.427 4734.911,3224.288C4733.171,3225.271 4731.601,3225.959 4730.202,3226.351C4728.804,3226.742 4727.394,3226.937 4725.971,3226.937C4723.958,3226.937 4722.463,3226.449 4721.485,3225.471C4720.508,3224.493 4720.019,3223.122 4720.019,3221.358C4720.019,3220.243 4720.214,3219.263 4720.603,3218.419C4720.993,3217.575 4721.734,3216.864 4722.825,3216.286C4723.917,3215.707 4725.511,3215.277 4727.608,3214.993L4740.123,3213.34ZM4788.873,3231.701L4788.873,3225.979L4777.04,3225.979L4777.04,3213.804C4778.869,3211.583 4780.398,3209.77 4781.63,3208.364C4783.211,3206.559 4784.573,3205.212 4785.718,3204.324C4786.863,3203.436 4788.03,3202.842 4789.217,3202.541C4790.405,3202.24 4791.877,3202.029 4793.635,3201.908L4801.1,3201.329L4800.641,3194.582L4792.849,3195.08C4791.429,3195.17 4790.131,3195.383 4788.954,3195.72C4787.777,3196.056 4786.584,3196.681 4785.374,3197.595C4784.165,3198.508 4782.81,3199.856 4781.308,3201.638C4780.008,3203.182 4778.488,3205.188 4776.749,3207.656L4776.35,3194.867L4762.265,3194.867L4762.265,3200.59L4770.287,3200.59L4770.287,3225.979L4760.681,3225.979L4760.681,3231.701L4788.873,3231.701ZM4822.584,3217.72C4822.584,3221.152 4822.957,3223.858 4823.704,3225.837C4824.451,3227.817 4825.734,3229.246 4827.551,3230.124C4829.369,3231 4831.891,3231.526 4835.117,3231.701L4847.392,3232.285L4847.827,3226.458L4836.629,3225.825C4834.739,3225.72 4833.258,3225.392 4832.189,3224.843C4831.12,3224.293 4830.377,3223.375 4829.961,3222.089C4829.545,3220.803 4829.337,3219.024 4829.337,3216.752L4829.337,3200.59L4845.599,3200.59L4845.599,3194.867L4829.263,3194.867L4829.263,3181.199L4822.633,3181.199L4822.633,3194.867L4810.18,3194.867L4810.18,3200.59L4822.584,3200.59L4822.584,3217.72ZM3247.824,3217.343L3277.658,3217.343C3277.728,3216.981 3277.788,3216.551 3277.838,3216.053C3277.889,3215.555 3277.915,3215.023 3277.915,3214.457C3277.915,3210.253 3277.187,3206.73 3275.731,3203.889C3274.276,3201.047 3272.223,3198.903 3269.574,3197.457C3266.924,3196.011 3263.811,3195.288 3260.233,3195.288C3256.521,3195.288 3253.225,3196.157 3250.346,3197.895C3247.467,3199.633 3245.201,3202.027 3243.546,3205.079C3241.892,3208.13 3241.065,3211.612 3241.065,3215.525C3241.065,3221.206 3242.677,3225.636 3245.9,3228.815C3249.125,3231.994 3254.302,3233.636 3261.433,3233.742L3270.793,3233.9L3271.026,3228.527L3263.375,3228.344C3259.672,3228.222 3256.665,3227.687 3254.355,3226.738C3252.046,3225.788 3250.364,3224.363 3249.308,3222.462C3248.516,3221.033 3248.021,3219.327 3247.824,3217.343ZM3247.914,3212.289C3248.164,3210.418 3248.66,3208.762 3249.405,3207.322C3250.525,3205.158 3252.034,3203.508 3253.932,3202.372C3255.831,3201.236 3257.939,3200.667 3260.257,3200.667C3263.555,3200.667 3266.213,3201.733 3268.229,3203.865C3269.971,3205.707 3270.961,3208.515 3271.197,3212.289L3247.914,3212.289ZM3162.06,3234.496C3165.869,3234.496 3169.231,3233.671 3172.144,3232.021C3175.058,3230.37 3177.344,3228.082 3179.002,3225.157C3180.66,3222.231 3181.49,3218.842 3181.49,3214.989C3181.49,3211.103 3180.674,3207.684 3179.042,3204.731C3177.41,3201.777 3175.163,3199.465 3172.303,3197.794C3169.442,3196.123 3166.133,3195.288 3162.377,3195.288C3158.568,3195.288 3155.207,3196.122 3152.293,3197.791C3149.38,3199.46 3147.094,3201.766 3145.435,3204.71C3143.777,3207.654 3142.948,3211.016 3142.948,3214.795C3142.948,3218.753 3143.764,3222.209 3145.396,3225.163C3147.028,3228.117 3149.278,3230.411 3152.147,3232.046C3155.016,3233.68 3158.321,3234.496 3162.06,3234.496ZM3162.219,3228.822C3158.527,3228.822 3155.551,3227.574 3153.291,3225.078C3151.032,3222.581 3149.902,3219.182 3149.902,3214.88C3149.902,3211.999 3150.427,3209.52 3151.475,3207.442C3152.524,3205.365 3153.968,3203.766 3155.807,3202.644C3157.647,3201.523 3159.784,3200.962 3162.219,3200.962C3164.685,3200.962 3166.838,3201.54 3168.678,3202.696C3170.518,3203.852 3171.954,3205.473 3172.987,3207.559C3174.019,3209.643 3174.535,3212.092 3174.535,3214.905C3174.535,3219.365 3173.397,3222.799 3171.121,3225.209C3168.845,3227.618 3165.878,3228.822 3162.219,3228.822ZM3101.995,3190.16L3112.794,3219.153L3114.432,3219.153L3125.153,3189.401L3126.493,3233.309L3132.978,3233.309L3130.876,3181.455L3123.25,3181.455L3113.745,3207.329L3104.068,3181.455L3096.345,3181.455L3094.243,3233.309L3100.678,3233.309L3101.995,3190.16Z" style="stroke:white;stroke-width:2.13px;"/>
                </g>
            </g>
        </g>
    </g>
</svg>
