<?xml version="1.0" encoding="UTF-8" standalone="no"?>
<!DOCTYPE svg PUBLIC "-//W3C//DTD SVG 1.1//EN" "http://www.w3.org/Graphics/SVG/1.1/DTD/svg11.dtd">
<svg width="100%" height="100%" viewBox="0 0 2481 2481" version="1.1" xmlns="http://www.w3.org/2000/svg" xmlns:xlink="http://www.w3.org/1999/xlink" xml:space="preserve" xmlns:serif="http://www.serif.com/" style="fill-rule:evenodd;clip-rule:evenodd;stroke-linecap:round;stroke-linejoin:round;stroke-miterlimit:1.5;">
    <g transform="matrix(1,0,0,1,-5432,-1027.163339)">
        <g id="Artboard2" transform="matrix(1,0,0,0.707184,2715.464567,1027.163339)">
            <rect x="2716.535" y="0" width="2480.315" height="3507.874" style="fill:none;"/>
            <g transform="matrix(0.956311,0,0,1.348991,2751.127487,81.283383)">
                <rect x="735.741" y="701.575" width="1049.802" height="1052.362" style="fill:white;stroke:black;stroke-width:2.23px;"/>
            </g>
            <g transform="matrix(6.554286,0,0,3.527012,-21523.649733,-3779.830525)">
                <path d="M3887.585,1108.005L3928.487,1322.969L3846.683,1322.969L3887.585,1108.005Z" style="fill:none;stroke:black;stroke-width:3.67px;"/>
            </g>
            <g transform="matrix(-6.554286,-0,0,-3.527012,29437.03556,7254.861112)">
                <path d="M3887.585,1108.005L3928.487,1322.969L3846.683,1322.969L3887.585,1108.005Z" style="fill:none;stroke:black;stroke-width:3.67px;"/>
            </g>
            <g transform="matrix(0,9.268154,-2.494245,0,7858.468923,-34293.220861)">
                <path d="M3887.585,1108.005L3928.487,1322.969L3846.683,1322.969L3887.585,1108.005Z" style="fill:none;stroke:black;stroke-width:3.67px;"/>
            </g>
            <g transform="matrix(1,0,0,1.41406,0.535433,-1452.470705)">
                <path d="M4558.126,2595.548L4558.126,2857.874L4297.93,2857.874" style="fill:none;stroke:black;stroke-width:18.21px;"/>
            </g>
            <g transform="matrix(0,-9.268154,2.494245,0,54.916903,37768.251449)">
                <path d="M3887.585,1108.005L3928.487,1322.969L3846.683,1322.969L3887.585,1108.005Z" style="fill:none;stroke:black;stroke-width:3.67px;"/>
            </g>
            <g transform="matrix(1,0,0,1.41406,2240.283768,-1102.488861)">
                <g>
                    <g transform="matrix(0.956019,0,0,0.956019,412.684227,-14.377271)">
                        <circle cx="1363.701" cy="1310.332" r="123.544"/>
                    </g>
                    <g transform="matrix(0.621413,0,0,0.621413,868.987949,424.068657)">
                        <circle cx="1363.701" cy="1310.332" r="123.544" style="fill:rgb(5,0,255);stroke:white;stroke-width:1.61px;"/>
                    </g>
                </g>
            </g>
            <g transform="matrix(1,0,0,1.41406,2240.283768,1075.386397)">
                <g transform="matrix(0.956019,0,0,0.956019,412.684227,-14.377271)">
                    <circle cx="1363.701" cy="1310.332" r="123.544"/>
                </g>
                <g transform="matrix(0.621413,0,0,0.621413,868.987949,424.068657)">
                    <circle cx="1363.701" cy="1310.332" r="123.544" style="fill:rgb(47,174,40);stroke:white;stroke-width:1.61px;"/>
                </g>
            </g>
            <g transform="matrix(1,0,0,1.41406,1470.205028,-13.551232)">
                <g transform="matrix(0.956019,0,0,0.956019,412.684227,-14.377271)">
                    <circle cx="1363.701" cy="1310.332" r="123.544"/>
                </g>
                <g transform="matrix(0.621413,0,0,0.621413,868.987949,424.068657)">
                    <circle cx="1363.701" cy="1310.332" r="123.544" style="fill:rgb(255,0,6);stroke:white;stroke-width:1.61px;"/>
                </g>
            </g>
            <g transform="matrix(1,0,0,1.41406,3010.362508,1075.386397)">
                <g transform="matrix(0.956019,0,0,0.956019,412.684227,-14.377271)">
                    <circle cx="1363.701" cy="1310.332" r="123.544"/>
                </g>
                <g transform="matrix(0.621413,0,0,0.621413,868.987949,424.068657)">
                    <circle cx="1363.701" cy="1310.332" r="123.544" style="fill:white;"/>
                </g>
            </g>
            <g transform="matrix(1,0,0,1.41406,3010.362508,-13.551232)">
                <g transform="matrix(0.956019,0,0,0.956019,412.684227,-14.377271)">
                    <circle cx="1363.701" cy="1310.332" r="123.544"/>
                </g>
                <g transform="matrix(0.621413,0,0,0.621413,868.987949,424.068657)">
                    <circle cx="1363.701" cy="1310.332" r="123.544" style="fill:rgb(255,242,0);stroke:white;stroke-width:1.61px;"/>
                </g>
            </g>
            <g transform="matrix(1,0,0,1.41406,1470.205028,-1102.488861)">
                <g transform="matrix(0.956019,0,0,0.956019,412.684227,-14.377271)">
                    <circle cx="1363.701" cy="1310.332" r="123.544"/>
                </g>
                <g transform="matrix(0.621413,0,0,0.621413,868.987949,424.068657)">
                    <circle cx="1363.701" cy="1310.332" r="123.544" style="fill:white;"/>
                </g>
            </g>
            <g transform="matrix(0.828292,0,0,2.460097,3561.168273,-1805.05804)">
                <rect x="1122.047" y="929.484" width="427.785" height="95.045" style="fill:none;stroke:black;stroke-width:1.56px;"/>
            </g>
            <g transform="matrix(0.825,0,0,1.1666,544.657905,-703.65907)">
                <rect x="3084.261" y="2907.874" width="236.22" height="236.22" style="fill:none;stroke:black;stroke-width:2.46px;"/>
            </g>
            <g transform="matrix(1,0,0,1.41406,0.535433,-1452.470705)">
                <path d="M4558.126,1915.51L4558.126,1653.937L4296.038,1653.937" style="fill:none;stroke:black;stroke-width:18.21px;"/>
            </g>
            <g transform="matrix(1,0,0,1.41406,0.535433,-1452.470705)">
                <path d="M3616.257,1653.937L3354.189,1653.937L3354.189,1916.308" style="fill:none;stroke:black;stroke-width:18.21px;"/>
            </g>
            <g transform="matrix(1,0,0,1.41406,0.535433,-1452.470705)">
                <path d="M3354.189,2595.548L3354.189,2857.874L3616.257,2857.874" style="fill:none;stroke:black;stroke-width:18.21px;"/>
            </g>
            <g transform="matrix(1,0,0,1.41406,164.32392,-1255.330678)">
                <g transform="matrix(79.166667,0,0,79.166667,2876.715123,1193.935381)">
                    <path d="M0.308,-0.059C0.357,-0.059 0.393,-0.069 0.417,-0.09C0.44,-0.11 0.452,-0.138 0.452,-0.173C0.452,-0.19 0.448,-0.206 0.441,-0.219C0.434,-0.232 0.422,-0.245 0.406,-0.256C0.389,-0.267 0.366,-0.277 0.337,-0.285L0.266,-0.308C0.205,-0.327 0.161,-0.352 0.135,-0.383C0.109,-0.414 0.096,-0.452 0.096,-0.497C0.096,-0.526 0.104,-0.554 0.12,-0.58C0.136,-0.606 0.161,-0.627 0.194,-0.643C0.227,-0.66 0.269,-0.668 0.32,-0.668C0.355,-0.668 0.388,-0.665 0.418,-0.66C0.448,-0.655 0.482,-0.647 0.521,-0.636L0.506,-0.561C0.466,-0.573 0.431,-0.582 0.4,-0.587C0.37,-0.593 0.343,-0.596 0.318,-0.596C0.27,-0.596 0.235,-0.587 0.214,-0.569C0.194,-0.551 0.184,-0.529 0.184,-0.503C0.184,-0.485 0.187,-0.468 0.194,-0.454C0.201,-0.44 0.213,-0.427 0.23,-0.416C0.247,-0.404 0.27,-0.394 0.3,-0.385L0.372,-0.362C0.433,-0.343 0.476,-0.319 0.502,-0.291C0.527,-0.263 0.54,-0.225 0.54,-0.177C0.54,-0.138 0.531,-0.104 0.512,-0.076C0.494,-0.047 0.467,-0.025 0.433,-0.01C0.398,0.006 0.356,0.013 0.307,0.013C0.27,0.013 0.232,0.009 0.194,0.001C0.156,-0.007 0.114,-0.019 0.07,-0.036L0.091,-0.11C0.134,-0.094 0.174,-0.082 0.211,-0.073C0.249,-0.064 0.281,-0.059 0.308,-0.059Z" style="fill-rule:nonzero;"/>
                </g>
                <g transform="matrix(79.166667,0,0,79.166667,2925.323456,1193.935381)">
                    <path d="M0.357,-0.063L0.453,-0.06L0.45,0.007L0.332,0.005C0.242,0.004 0.177,-0.017 0.136,-0.057C0.095,-0.097 0.075,-0.153 0.075,-0.225C0.075,-0.274 0.085,-0.318 0.106,-0.357C0.127,-0.395 0.156,-0.425 0.192,-0.447C0.229,-0.469 0.27,-0.48 0.317,-0.48C0.362,-0.48 0.402,-0.471 0.435,-0.453C0.469,-0.435 0.494,-0.408 0.513,-0.372C0.531,-0.336 0.54,-0.291 0.54,-0.238C0.54,-0.231 0.54,-0.224 0.539,-0.218C0.539,-0.212 0.538,-0.206 0.537,-0.202L0.118,-0.202L0.118,-0.266L0.491,-0.266L0.456,-0.242C0.456,-0.302 0.444,-0.345 0.418,-0.372C0.393,-0.399 0.359,-0.412 0.317,-0.412C0.288,-0.412 0.261,-0.405 0.237,-0.391C0.214,-0.376 0.194,-0.356 0.18,-0.328C0.166,-0.301 0.159,-0.267 0.159,-0.228C0.159,-0.191 0.166,-0.161 0.179,-0.137C0.192,-0.113 0.214,-0.095 0.243,-0.083C0.272,-0.071 0.31,-0.064 0.357,-0.063Z" style="fill-rule:nonzero;"/>
                </g>
                <g transform="matrix(79.166667,0,0,79.166667,2973.931789,1193.935381)">
                    <path d="M0.059,-0.71L0.285,-0.71L0.285,-0.638L0.059,-0.638L0.059,-0.71ZM0.242,-0.165L0.242,-0.71L0.327,-0.71L0.327,-0.174C0.327,-0.138 0.334,-0.113 0.349,-0.098C0.363,-0.084 0.386,-0.075 0.419,-0.074L0.528,-0.067L0.523,0.007L0.404,-0C0.364,-0.003 0.332,-0.009 0.308,-0.02C0.285,-0.03 0.268,-0.048 0.257,-0.071C0.247,-0.094 0.242,-0.126 0.242,-0.165Z" style="fill-rule:nonzero;"/>
                </g>
                <g transform="matrix(79.166667,0,0,79.166667,3022.540123,1193.935381)">
                    <path d="M0.357,-0.063L0.453,-0.06L0.45,0.007L0.332,0.005C0.242,0.004 0.177,-0.017 0.136,-0.057C0.095,-0.097 0.075,-0.153 0.075,-0.225C0.075,-0.274 0.085,-0.318 0.106,-0.357C0.127,-0.395 0.156,-0.425 0.192,-0.447C0.229,-0.469 0.27,-0.48 0.317,-0.48C0.362,-0.48 0.402,-0.471 0.435,-0.453C0.469,-0.435 0.494,-0.408 0.513,-0.372C0.531,-0.336 0.54,-0.291 0.54,-0.238C0.54,-0.231 0.54,-0.224 0.539,-0.218C0.539,-0.212 0.538,-0.206 0.537,-0.202L0.118,-0.202L0.118,-0.266L0.491,-0.266L0.456,-0.242C0.456,-0.302 0.444,-0.345 0.418,-0.372C0.393,-0.399 0.359,-0.412 0.317,-0.412C0.288,-0.412 0.261,-0.405 0.237,-0.391C0.214,-0.376 0.194,-0.356 0.18,-0.328C0.166,-0.301 0.159,-0.267 0.159,-0.228C0.159,-0.191 0.166,-0.161 0.179,-0.137C0.192,-0.113 0.214,-0.095 0.243,-0.083C0.272,-0.071 0.31,-0.064 0.357,-0.063Z" style="fill-rule:nonzero;"/>
                </g>
                <g transform="matrix(79.166667,0,0,79.166667,3071.148456,1193.935381)">
                    <path d="M0.328,-0.407C0.295,-0.407 0.265,-0.4 0.24,-0.385C0.214,-0.371 0.194,-0.35 0.18,-0.324C0.166,-0.298 0.159,-0.268 0.159,-0.235C0.159,-0.2 0.166,-0.169 0.18,-0.142C0.194,-0.116 0.213,-0.095 0.237,-0.08C0.261,-0.065 0.289,-0.058 0.319,-0.058C0.344,-0.058 0.371,-0.062 0.399,-0.07C0.428,-0.078 0.464,-0.094 0.508,-0.118L0.545,-0.058C0.496,-0.03 0.454,-0.01 0.42,-0C0.385,0.01 0.35,0.015 0.315,0.015C0.268,0.015 0.226,0.005 0.189,-0.015C0.152,-0.035 0.123,-0.064 0.102,-0.102C0.081,-0.139 0.07,-0.184 0.07,-0.236C0.07,-0.282 0.081,-0.323 0.104,-0.36C0.127,-0.397 0.157,-0.426 0.196,-0.448C0.235,-0.469 0.279,-0.48 0.327,-0.48C0.348,-0.48 0.368,-0.478 0.389,-0.474C0.41,-0.47 0.433,-0.463 0.458,-0.453C0.482,-0.442 0.511,-0.426 0.542,-0.405L0.503,-0.342C0.474,-0.362 0.449,-0.376 0.429,-0.385C0.408,-0.394 0.39,-0.4 0.374,-0.403C0.359,-0.406 0.343,-0.407 0.328,-0.407Z" style="fill-rule:nonzero;"/>
                </g>
                <g transform="matrix(79.166667,0,0,79.166667,3119.756789,1193.935381)">
                    <path d="M0.219,-0.177L0.219,-0.393L0.062,-0.393L0.062,-0.465L0.22,-0.465L0.22,-0.638L0.303,-0.638L0.303,-0.465L0.51,-0.465L0.51,-0.393L0.304,-0.393L0.304,-0.189C0.304,-0.16 0.307,-0.138 0.312,-0.121C0.318,-0.105 0.327,-0.094 0.34,-0.087C0.354,-0.08 0.373,-0.076 0.397,-0.074L0.538,-0.066L0.532,0.007L0.377,-0C0.337,-0.002 0.305,-0.009 0.282,-0.02C0.259,-0.031 0.243,-0.049 0.233,-0.074C0.224,-0.099 0.219,-0.133 0.219,-0.177Z" style="fill-rule:nonzero;"/>
                </g>
                <g transform="matrix(79.166667,0,0,79.166667,3168.365123,1193.935381)">
                </g>
            </g>
            <g transform="matrix(1,0,0,1.41406,1734.625611,1429.05206)">
                <g transform="matrix(79.166667,0,0,79.166667,2876.715123,1193.935381)">
                    <path d="M0.308,-0.059C0.357,-0.059 0.393,-0.069 0.417,-0.09C0.44,-0.11 0.452,-0.138 0.452,-0.173C0.452,-0.19 0.448,-0.206 0.441,-0.219C0.434,-0.232 0.422,-0.245 0.406,-0.256C0.389,-0.267 0.366,-0.277 0.337,-0.285L0.266,-0.308C0.205,-0.327 0.161,-0.352 0.135,-0.383C0.109,-0.414 0.096,-0.452 0.096,-0.497C0.096,-0.526 0.104,-0.554 0.12,-0.58C0.136,-0.606 0.161,-0.627 0.194,-0.643C0.227,-0.66 0.269,-0.668 0.32,-0.668C0.355,-0.668 0.388,-0.665 0.418,-0.66C0.448,-0.655 0.482,-0.647 0.521,-0.636L0.506,-0.561C0.466,-0.573 0.431,-0.582 0.4,-0.587C0.37,-0.593 0.343,-0.596 0.318,-0.596C0.27,-0.596 0.235,-0.587 0.214,-0.569C0.194,-0.551 0.184,-0.529 0.184,-0.503C0.184,-0.485 0.187,-0.468 0.194,-0.454C0.201,-0.44 0.213,-0.427 0.23,-0.416C0.247,-0.404 0.27,-0.394 0.3,-0.385L0.372,-0.362C0.433,-0.343 0.476,-0.319 0.502,-0.291C0.527,-0.263 0.54,-0.225 0.54,-0.177C0.54,-0.138 0.531,-0.104 0.512,-0.076C0.494,-0.047 0.467,-0.025 0.433,-0.01C0.398,0.006 0.356,0.013 0.307,0.013C0.27,0.013 0.232,0.009 0.194,0.001C0.156,-0.007 0.114,-0.019 0.07,-0.036L0.091,-0.11C0.134,-0.094 0.174,-0.082 0.211,-0.073C0.249,-0.064 0.281,-0.059 0.308,-0.059Z" style="fill-rule:nonzero;"/>
                </g>
                <g transform="matrix(79.166667,0,0,79.166667,2925.323456,1193.935381)">
                    <path d="M0.219,-0.177L0.219,-0.393L0.062,-0.393L0.062,-0.465L0.22,-0.465L0.22,-0.638L0.303,-0.638L0.303,-0.465L0.51,-0.465L0.51,-0.393L0.304,-0.393L0.304,-0.189C0.304,-0.16 0.307,-0.138 0.312,-0.121C0.318,-0.105 0.327,-0.094 0.34,-0.087C0.354,-0.08 0.373,-0.076 0.397,-0.074L0.538,-0.066L0.532,0.007L0.377,-0C0.337,-0.002 0.305,-0.009 0.282,-0.02C0.259,-0.031 0.243,-0.049 0.233,-0.074C0.224,-0.099 0.219,-0.133 0.219,-0.177Z" style="fill-rule:nonzero;"/>
                </g>
                <g transform="matrix(79.166667,0,0,79.166667,2973.931789,1193.935381)">
                    <path d="M0.227,-0.06C0.245,-0.06 0.263,-0.063 0.28,-0.068C0.298,-0.073 0.318,-0.081 0.34,-0.094C0.362,-0.106 0.387,-0.123 0.416,-0.145L0.408,-0.066L0.399,-0.066C0.37,-0.042 0.339,-0.024 0.308,-0.012C0.278,0.001 0.244,0.007 0.208,0.007C0.167,0.007 0.133,-0.004 0.106,-0.027C0.08,-0.05 0.067,-0.082 0.067,-0.125C0.067,-0.155 0.072,-0.179 0.082,-0.199C0.093,-0.218 0.11,-0.233 0.134,-0.245C0.158,-0.256 0.191,-0.264 0.232,-0.268L0.428,-0.291L0.428,-0.235L0.247,-0.211C0.221,-0.207 0.201,-0.202 0.187,-0.195C0.173,-0.187 0.164,-0.178 0.159,-0.168C0.154,-0.157 0.152,-0.145 0.152,-0.131C0.152,-0.108 0.158,-0.091 0.17,-0.079C0.182,-0.066 0.201,-0.06 0.227,-0.06ZM0.489,-0.117C0.489,-0.097 0.491,-0.084 0.497,-0.077C0.502,-0.07 0.514,-0.066 0.53,-0.065L0.575,-0.062L0.569,0.004L0.522,0.002C0.488,0 0.462,-0.006 0.444,-0.016C0.427,-0.027 0.415,-0.043 0.408,-0.066L0.405,-0.089L0.405,-0.323C0.405,-0.343 0.402,-0.358 0.395,-0.37C0.389,-0.382 0.376,-0.39 0.359,-0.395C0.341,-0.401 0.316,-0.403 0.283,-0.403C0.265,-0.403 0.241,-0.402 0.212,-0.399C0.183,-0.395 0.152,-0.391 0.118,-0.386L0.109,-0.455C0.144,-0.461 0.177,-0.465 0.208,-0.468C0.238,-0.471 0.265,-0.473 0.286,-0.473C0.338,-0.473 0.378,-0.467 0.408,-0.457C0.437,-0.446 0.458,-0.43 0.47,-0.408C0.482,-0.386 0.489,-0.357 0.489,-0.321L0.489,-0.117Z" style="fill-rule:nonzero;"/>
                </g>
                <g transform="matrix(79.166667,0,0,79.166667,3022.540123,1193.935381)">
                    <path d="M0.249,-0.465L0.255,-0.275L0.258,-0.275L0.258,-0L0.173,-0L0.173,-0.465L0.249,-0.465ZM0.237,-0.201L0.244,-0.289C0.27,-0.327 0.293,-0.357 0.312,-0.38C0.331,-0.402 0.348,-0.419 0.363,-0.431C0.378,-0.442 0.393,-0.45 0.408,-0.455C0.423,-0.459 0.44,-0.461 0.458,-0.463L0.556,-0.469L0.562,-0.384L0.467,-0.376C0.445,-0.375 0.427,-0.372 0.412,-0.368C0.397,-0.365 0.382,-0.357 0.367,-0.346C0.353,-0.335 0.336,-0.318 0.316,-0.295C0.296,-0.272 0.27,-0.241 0.237,-0.201ZM0.071,-0.465L0.234,-0.465L0.234,-0.393L0.071,-0.393L0.071,-0.465ZM0.051,-0.072L0.407,-0.072L0.407,-0L0.051,-0L0.051,-0.072Z" style="fill-rule:nonzero;"/>
                </g>
                <g transform="matrix(79.166667,0,0,79.166667,3071.148456,1193.935381)">
                    <path d="M0.219,-0.177L0.219,-0.393L0.062,-0.393L0.062,-0.465L0.22,-0.465L0.22,-0.638L0.303,-0.638L0.303,-0.465L0.51,-0.465L0.51,-0.393L0.304,-0.393L0.304,-0.189C0.304,-0.16 0.307,-0.138 0.312,-0.121C0.318,-0.105 0.327,-0.094 0.34,-0.087C0.354,-0.08 0.373,-0.076 0.397,-0.074L0.538,-0.066L0.532,0.007L0.377,-0C0.337,-0.002 0.305,-0.009 0.282,-0.02C0.259,-0.031 0.243,-0.049 0.233,-0.074C0.224,-0.099 0.219,-0.133 0.219,-0.177Z" style="fill-rule:nonzero;"/>
                </g>
                <g transform="matrix(79.166667,0,0,79.166667,3119.756789,1193.935381)">
                </g>
            </g>
            <g transform="matrix(1,0,0,1.41406,213.126459,1431.325972)">
                <g transform="matrix(79.166667,0,0,79.166667,2876.715123,1193.935381)">
                    <path d="M0.525,-0.655L0.552,-0L0.47,-0L0.45,-0.655L0.525,-0.655ZM0.164,-0.655L0.144,-0L0.062,-0L0.089,-0.655L0.164,-0.655ZM0.489,-0.655L0.317,-0.179L0.297,-0.179L0.119,-0.655L0.186,-0.655L0.324,-0.286L0.293,-0.286L0.429,-0.655L0.489,-0.655Z" style="fill-rule:nonzero;"/>
                </g>
                <g transform="matrix(79.166667,0,0,79.166667,2925.323456,1193.935381)">
                    <path d="M0.305,0.015C0.258,0.015 0.216,0.005 0.18,-0.016C0.144,-0.037 0.115,-0.066 0.095,-0.103C0.074,-0.14 0.064,-0.184 0.064,-0.234C0.064,-0.282 0.074,-0.324 0.095,-0.361C0.116,-0.398 0.145,-0.428 0.182,-0.449C0.218,-0.47 0.261,-0.48 0.309,-0.48C0.356,-0.48 0.398,-0.47 0.434,-0.449C0.471,-0.428 0.499,-0.398 0.519,-0.361C0.54,-0.324 0.55,-0.28 0.55,-0.231C0.55,-0.183 0.54,-0.14 0.519,-0.103C0.498,-0.066 0.469,-0.037 0.432,-0.016C0.396,0.005 0.353,0.015 0.305,0.015ZM0.307,-0.057C0.353,-0.057 0.391,-0.072 0.419,-0.102C0.448,-0.133 0.463,-0.176 0.463,-0.232C0.463,-0.268 0.456,-0.299 0.443,-0.325C0.43,-0.352 0.412,-0.372 0.389,-0.387C0.365,-0.401 0.338,-0.409 0.307,-0.409C0.276,-0.409 0.249,-0.402 0.226,-0.387C0.203,-0.373 0.185,-0.353 0.171,-0.327C0.158,-0.3 0.151,-0.269 0.151,-0.233C0.151,-0.178 0.166,-0.136 0.194,-0.104C0.223,-0.072 0.26,-0.057 0.307,-0.057Z" style="fill-rule:nonzero;"/>
                </g>
                <g transform="matrix(79.166667,0,0,79.166667,2973.931789,1193.935381)">
                    <path d="M0.449,-0L0.438,-0.1L0.436,-0.1L0.436,-0.71L0.522,-0.71L0.522,-0L0.449,-0ZM0.266,0.009C0.228,0.009 0.194,-0.001 0.162,-0.02C0.131,-0.039 0.106,-0.066 0.087,-0.102C0.069,-0.137 0.059,-0.179 0.059,-0.227C0.059,-0.275 0.069,-0.317 0.09,-0.354C0.11,-0.391 0.138,-0.42 0.174,-0.441C0.209,-0.462 0.249,-0.472 0.294,-0.472C0.323,-0.472 0.352,-0.466 0.381,-0.455C0.41,-0.443 0.441,-0.419 0.474,-0.382L0.47,-0.308C0.447,-0.334 0.425,-0.354 0.405,-0.368C0.385,-0.381 0.367,-0.39 0.351,-0.395C0.335,-0.4 0.32,-0.402 0.307,-0.402C0.274,-0.402 0.245,-0.394 0.221,-0.379C0.197,-0.364 0.179,-0.344 0.166,-0.318C0.153,-0.292 0.147,-0.263 0.147,-0.23C0.147,-0.195 0.154,-0.166 0.167,-0.141C0.18,-0.115 0.197,-0.096 0.219,-0.083C0.241,-0.069 0.264,-0.062 0.29,-0.062C0.306,-0.062 0.323,-0.065 0.339,-0.071C0.355,-0.077 0.373,-0.088 0.393,-0.103C0.412,-0.118 0.435,-0.14 0.461,-0.168L0.453,-0.091C0.421,-0.054 0.39,-0.028 0.361,-0.013C0.332,0.002 0.301,0.009 0.266,0.009Z" style="fill-rule:nonzero;"/>
                </g>
                <g transform="matrix(79.166667,0,0,79.166667,3022.540123,1193.935381)">
                    <path d="M0.357,-0.063L0.453,-0.06L0.45,0.007L0.332,0.005C0.242,0.004 0.177,-0.017 0.136,-0.057C0.095,-0.097 0.075,-0.153 0.075,-0.225C0.075,-0.274 0.085,-0.318 0.106,-0.357C0.127,-0.395 0.156,-0.425 0.192,-0.447C0.229,-0.469 0.27,-0.48 0.317,-0.48C0.362,-0.48 0.402,-0.471 0.435,-0.453C0.469,-0.435 0.494,-0.408 0.513,-0.372C0.531,-0.336 0.54,-0.291 0.54,-0.238C0.54,-0.231 0.54,-0.224 0.539,-0.218C0.539,-0.212 0.538,-0.206 0.537,-0.202L0.118,-0.202L0.118,-0.266L0.491,-0.266L0.456,-0.242C0.456,-0.302 0.444,-0.345 0.418,-0.372C0.393,-0.399 0.359,-0.412 0.317,-0.412C0.288,-0.412 0.261,-0.405 0.237,-0.391C0.214,-0.376 0.194,-0.356 0.18,-0.328C0.166,-0.301 0.159,-0.267 0.159,-0.228C0.159,-0.191 0.166,-0.161 0.179,-0.137C0.192,-0.113 0.214,-0.095 0.243,-0.083C0.272,-0.071 0.31,-0.064 0.357,-0.063Z" style="fill-rule:nonzero;"/>
                </g>
                <g transform="matrix(79.166667,0,0,79.166667,3071.148456,1193.935381)">
                </g>
            </g>
            <g transform="matrix(1,0,0,1.41406,1612.839799,-1260.067411)">
                <g transform="matrix(79.166667,0,0,79.166667,2876.715123,1193.935381)">
                    <path d="M0.308,-0.059C0.357,-0.059 0.393,-0.069 0.417,-0.09C0.44,-0.11 0.452,-0.138 0.452,-0.173C0.452,-0.19 0.448,-0.206 0.441,-0.219C0.434,-0.232 0.422,-0.245 0.406,-0.256C0.389,-0.267 0.366,-0.277 0.337,-0.285L0.266,-0.308C0.205,-0.327 0.161,-0.352 0.135,-0.383C0.109,-0.414 0.096,-0.452 0.096,-0.497C0.096,-0.526 0.104,-0.554 0.12,-0.58C0.136,-0.606 0.161,-0.627 0.194,-0.643C0.227,-0.66 0.269,-0.668 0.32,-0.668C0.355,-0.668 0.388,-0.665 0.418,-0.66C0.448,-0.655 0.482,-0.647 0.521,-0.636L0.506,-0.561C0.466,-0.573 0.431,-0.582 0.4,-0.587C0.37,-0.593 0.343,-0.596 0.318,-0.596C0.27,-0.596 0.235,-0.587 0.214,-0.569C0.194,-0.551 0.184,-0.529 0.184,-0.503C0.184,-0.485 0.187,-0.468 0.194,-0.454C0.201,-0.44 0.213,-0.427 0.23,-0.416C0.247,-0.404 0.27,-0.394 0.3,-0.385L0.372,-0.362C0.433,-0.343 0.476,-0.319 0.502,-0.291C0.527,-0.263 0.54,-0.225 0.54,-0.177C0.54,-0.138 0.531,-0.104 0.512,-0.076C0.494,-0.047 0.467,-0.025 0.433,-0.01C0.398,0.006 0.356,0.013 0.307,0.013C0.27,0.013 0.232,0.009 0.194,0.001C0.156,-0.007 0.114,-0.019 0.07,-0.036L0.091,-0.11C0.134,-0.094 0.174,-0.082 0.211,-0.073C0.249,-0.064 0.281,-0.059 0.308,-0.059Z" style="fill-rule:nonzero;"/>
                </g>
                <g transform="matrix(79.166667,0,0,79.166667,2925.323456,1193.935381)">
                    <path d="M0.328,-0.407C0.295,-0.407 0.265,-0.4 0.24,-0.385C0.214,-0.371 0.194,-0.35 0.18,-0.324C0.166,-0.298 0.159,-0.268 0.159,-0.235C0.159,-0.2 0.166,-0.169 0.18,-0.142C0.194,-0.116 0.213,-0.095 0.237,-0.08C0.261,-0.065 0.289,-0.058 0.319,-0.058C0.344,-0.058 0.371,-0.062 0.399,-0.07C0.428,-0.078 0.464,-0.094 0.508,-0.118L0.545,-0.058C0.496,-0.03 0.454,-0.01 0.42,-0C0.385,0.01 0.35,0.015 0.315,0.015C0.268,0.015 0.226,0.005 0.189,-0.015C0.152,-0.035 0.123,-0.064 0.102,-0.102C0.081,-0.139 0.07,-0.184 0.07,-0.236C0.07,-0.282 0.081,-0.323 0.104,-0.36C0.127,-0.397 0.157,-0.426 0.196,-0.448C0.235,-0.469 0.279,-0.48 0.327,-0.48C0.348,-0.48 0.368,-0.478 0.389,-0.474C0.41,-0.47 0.433,-0.463 0.458,-0.453C0.482,-0.442 0.511,-0.426 0.542,-0.405L0.503,-0.342C0.474,-0.362 0.449,-0.376 0.429,-0.385C0.408,-0.394 0.39,-0.4 0.374,-0.403C0.359,-0.406 0.343,-0.407 0.328,-0.407Z" style="fill-rule:nonzero;"/>
                </g>
                <g transform="matrix(79.166667,0,0,79.166667,2973.931789,1193.935381)">
                    <path d="M0.305,0.015C0.258,0.015 0.216,0.005 0.18,-0.016C0.144,-0.037 0.115,-0.066 0.095,-0.103C0.074,-0.14 0.064,-0.184 0.064,-0.234C0.064,-0.282 0.074,-0.324 0.095,-0.361C0.116,-0.398 0.145,-0.428 0.182,-0.449C0.218,-0.47 0.261,-0.48 0.309,-0.48C0.356,-0.48 0.398,-0.47 0.434,-0.449C0.471,-0.428 0.499,-0.398 0.519,-0.361C0.54,-0.324 0.55,-0.28 0.55,-0.231C0.55,-0.183 0.54,-0.14 0.519,-0.103C0.498,-0.066 0.469,-0.037 0.432,-0.016C0.396,0.005 0.353,0.015 0.305,0.015ZM0.307,-0.057C0.353,-0.057 0.391,-0.072 0.419,-0.102C0.448,-0.133 0.463,-0.176 0.463,-0.232C0.463,-0.268 0.456,-0.299 0.443,-0.325C0.43,-0.352 0.412,-0.372 0.389,-0.387C0.365,-0.401 0.338,-0.409 0.307,-0.409C0.276,-0.409 0.249,-0.402 0.226,-0.387C0.203,-0.373 0.185,-0.353 0.171,-0.327C0.158,-0.3 0.151,-0.269 0.151,-0.233C0.151,-0.178 0.166,-0.136 0.194,-0.104C0.223,-0.072 0.26,-0.057 0.307,-0.057Z" style="fill-rule:nonzero;"/>
                </g>
                <g transform="matrix(79.166667,0,0,79.166667,3022.540123,1193.935381)">
                    <path d="M0.249,-0.465L0.255,-0.275L0.258,-0.275L0.258,-0L0.173,-0L0.173,-0.465L0.249,-0.465ZM0.237,-0.201L0.244,-0.289C0.27,-0.327 0.293,-0.357 0.312,-0.38C0.331,-0.402 0.348,-0.419 0.363,-0.431C0.378,-0.442 0.393,-0.45 0.408,-0.455C0.423,-0.459 0.44,-0.461 0.458,-0.463L0.556,-0.469L0.562,-0.384L0.467,-0.376C0.445,-0.375 0.427,-0.372 0.412,-0.368C0.397,-0.365 0.382,-0.357 0.367,-0.346C0.353,-0.335 0.336,-0.318 0.316,-0.295C0.296,-0.272 0.27,-0.241 0.237,-0.201ZM0.071,-0.465L0.234,-0.465L0.234,-0.393L0.071,-0.393L0.071,-0.465ZM0.051,-0.072L0.407,-0.072L0.407,-0L0.051,-0L0.051,-0.072Z" style="fill-rule:nonzero;"/>
                </g>
                <g transform="matrix(79.166667,0,0,79.166667,3071.148456,1193.935381)">
                    <path d="M0.357,-0.063L0.453,-0.06L0.45,0.007L0.332,0.005C0.242,0.004 0.177,-0.017 0.136,-0.057C0.095,-0.097 0.075,-0.153 0.075,-0.225C0.075,-0.274 0.085,-0.318 0.106,-0.357C0.127,-0.395 0.156,-0.425 0.192,-0.447C0.229,-0.469 0.27,-0.48 0.317,-0.48C0.362,-0.48 0.402,-0.471 0.435,-0.453C0.469,-0.435 0.494,-0.408 0.513,-0.372C0.531,-0.336 0.54,-0.291 0.54,-0.238C0.54,-0.231 0.54,-0.224 0.539,-0.218C0.539,-0.212 0.538,-0.206 0.537,-0.202L0.118,-0.202L0.118,-0.266L0.491,-0.266L0.456,-0.242C0.456,-0.302 0.444,-0.345 0.418,-0.372C0.393,-0.399 0.359,-0.412 0.317,-0.412C0.288,-0.412 0.261,-0.405 0.237,-0.391C0.214,-0.376 0.194,-0.356 0.18,-0.328C0.166,-0.301 0.159,-0.267 0.159,-0.228C0.159,-0.191 0.166,-0.161 0.179,-0.137C0.192,-0.113 0.214,-0.095 0.243,-0.083C0.272,-0.071 0.31,-0.064 0.357,-0.063Z" style="fill-rule:nonzero;"/>
                </g>
                <g transform="matrix(79.166667,0,0,79.166667,3119.756789,1193.935381)">
                </g>
            </g>
            <g>
                <g transform="matrix(1,0,0,1.41406,0.535433,-1452.470705)">
                    <path d="M3186.079,1485.827L3228.638,1443.268" style="fill:none;stroke:black;stroke-width:2.13px;"/>
                </g>
                <g transform="matrix(0,1.41406,-1,0,4672.440945,-3856.729192)">
                    <path d="M3186.079,1485.827L3228.638,1443.268" style="fill:none;stroke:black;stroke-width:2.13px;"/>
                </g>
                <g transform="matrix(0,1.41406,-1,0,4629.882181,-3916.909843)">
                    <path d="M3186.079,1485.827L3228.638,1443.268" style="fill:none;stroke:black;stroke-width:2.13px;"/>
                </g>
                <g transform="matrix(1,0,0,1.41406,-42.023331,-1392.290055)">
                    <path d="M3186.079,1485.827L3228.638,1443.268" style="fill:none;stroke:black;stroke-width:2.13px;"/>
                </g>
            </g>
            <g transform="matrix(1,0,0,1,770.07874,0)">
                <g transform="matrix(1,0,0,1.41406,0.535433,-1452.470705)">
                    <path d="M3186.079,1485.827L3228.638,1443.268" style="fill:none;stroke:black;stroke-width:2.13px;"/>
                </g>
                <g transform="matrix(0,1.41406,-1,0,4672.440945,-3856.729192)">
                    <path d="M3186.079,1485.827L3228.638,1443.268" style="fill:none;stroke:black;stroke-width:2.13px;"/>
                </g>
                <g transform="matrix(0,1.41406,-1,0,4629.882181,-3916.909843)">
                    <path d="M3186.079,1485.827L3228.638,1443.268" style="fill:none;stroke:black;stroke-width:2.13px;"/>
                </g>
                <g transform="matrix(1,0,0,1.41406,-42.023331,-1392.290055)">
                    <path d="M3186.079,1485.827L3228.638,1443.268" style="fill:none;stroke:black;stroke-width:2.13px;"/>
                </g>
            </g>
            <g transform="matrix(1,0,0,1,1540.15748,1088.937629)">
                <g transform="matrix(1,0,0,1.41406,0.535433,-1452.470705)">
                    <path d="M3186.079,1485.827L3228.638,1443.268" style="fill:none;stroke:black;stroke-width:2.13px;"/>
                </g>
                <g transform="matrix(0,1.41406,-1,0,4672.440945,-3856.729192)">
                    <path d="M3186.079,1485.827L3228.638,1443.268" style="fill:none;stroke:black;stroke-width:2.13px;"/>
                </g>
                <g transform="matrix(0,1.41406,-1,0,4629.882181,-3916.909843)">
                    <path d="M3186.079,1485.827L3228.638,1443.268" style="fill:none;stroke:black;stroke-width:2.13px;"/>
                </g>
                <g transform="matrix(1,0,0,1.41406,-42.023331,-1392.290055)">
                    <path d="M3186.079,1485.827L3228.638,1443.268" style="fill:none;stroke:black;stroke-width:2.13px;"/>
                </g>
            </g>
            <g transform="matrix(1,0,0,1,1540.15748,2177.875258)">
                <g transform="matrix(1,0,0,1.41406,0.535433,-1452.470705)">
                    <path d="M3186.079,1485.827L3228.638,1443.268" style="fill:none;stroke:black;stroke-width:2.13px;"/>
                </g>
                <g transform="matrix(0,1.41406,-1,0,4672.440945,-3856.729192)">
                    <path d="M3186.079,1485.827L3228.638,1443.268" style="fill:none;stroke:black;stroke-width:2.13px;"/>
                </g>
                <g transform="matrix(0,1.41406,-1,0,4629.882181,-3916.909843)">
                    <path d="M3186.079,1485.827L3228.638,1443.268" style="fill:none;stroke:black;stroke-width:2.13px;"/>
                </g>
                <g transform="matrix(1,0,0,1.41406,-42.023331,-1392.290055)">
                    <path d="M3186.079,1485.827L3228.638,1443.268" style="fill:none;stroke:black;stroke-width:2.13px;"/>
                </g>
            </g>
            <g transform="matrix(1,0,0,1,770.07874,2177.875258)">
                <g transform="matrix(1,0,0,1.41406,0.535433,-1452.470705)">
                    <path d="M3186.079,1485.827L3228.638,1443.268" style="fill:none;stroke:black;stroke-width:2.13px;"/>
                </g>
                <g transform="matrix(0,1.41406,-1,0,4672.440945,-3856.729192)">
                    <path d="M3186.079,1485.827L3228.638,1443.268" style="fill:none;stroke:black;stroke-width:2.13px;"/>
                </g>
                <g transform="matrix(0,1.41406,-1,0,4629.882181,-3916.909843)">
                    <path d="M3186.079,1485.827L3228.638,1443.268" style="fill:none;stroke:black;stroke-width:2.13px;"/>
                </g>
                <g transform="matrix(1,0,0,1.41406,-42.023331,-1392.290055)">
                    <path d="M3186.079,1485.827L3228.638,1443.268" style="fill:none;stroke:black;stroke-width:2.13px;"/>
                </g>
            </g>
            <g transform="matrix(1,0,0,1,-0,1088.937629)">
                <g transform="matrix(1,0,0,1.41406,0.535433,-1452.470705)">
                    <path d="M3186.079,1485.827L3228.638,1443.268" style="fill:none;stroke:black;stroke-width:2.13px;"/>
                </g>
                <g transform="matrix(0,1.41406,-1,0,4672.440945,-3856.729192)">
                    <path d="M3186.079,1485.827L3228.638,1443.268" style="fill:none;stroke:black;stroke-width:2.13px;"/>
                </g>
                <g transform="matrix(0,1.41406,-1,0,4629.882181,-3916.909843)">
                    <path d="M3186.079,1485.827L3228.638,1443.268" style="fill:none;stroke:black;stroke-width:2.13px;"/>
                </g>
                <g transform="matrix(1,0,0,1.41406,-42.023331,-1392.290055)">
                    <path d="M3186.079,1485.827L3228.638,1443.268" style="fill:none;stroke:black;stroke-width:2.13px;"/>
                </g>
            </g>
        </g>
    </g>
</svg>
